<svg xmlns="http://www.w3.org/2000/svg" viewBox="0 0 960 500">
  <!-- Background -->
  <rect width="960" height="500" fill="#f8f9fa"/>
  
  <!-- Title -->
  <text x="480" y="35" font-family="Arial" font-size="24" text-anchor="middle" font-weight="bold">BipartiteCitationGNN Architecture</text>
  
  <!-- Input Layer -->
  <rect x="60" y="60" width="60" height="320" fill="#a8c8ff" stroke="#2c5aa0" stroke-width="2"/>
  <text x="90" y="220" font-family="Arial" font-size="14" text-anchor="middle" transform="rotate(-90, 90, 220)">Author Features &amp; Paper IDs</text>
  
  <!-- Feature Processing Layers -->
  <rect x="150" y="70" width="60" height="140" fill="#b8e0d2" stroke="#2c5aa0" stroke-width="2"/>
  <text x="180" y="150" font-family="Arial" font-size="14" text-anchor="middle" transform="rotate(-90, 180, 150)">Paper Embedding</text>
  
  <rect x="150" y="230" width="60" height="140" fill="#b8e0d2" stroke="#2c5aa0" stroke-width="2"/>
  <text x="180" y="300" font-family="Arial" font-size="14" text-anchor="middle" transform="rotate(-90, 180, 300)">Author Projection</text>
  
  <!-- Dropout -->
  <rect x="240" y="60" width="30" height="320" fill="#f5e6cc" stroke="#2c5aa0" stroke-width="2"/>
  <text x="255" y="220" font-family="Arial" font-size="13" text-anchor="middle" transform="rotate(-90, 255, 220)">Dropout (0.2)</text>
  
  <!-- First HeteroConv Layer -->
  <rect x="300" y="60" width="100" height="320" fill="#ffcccb" stroke="#2c5aa0" stroke-width="2"/>
  <text x="350" y="220" font-family="Arial" font-size="14" text-anchor="middle" transform="rotate(-90, 350, 220)">HeteroConv #1 (SAGEConv)</text>
  
  <!-- ReLU -->
  <rect x="430" y="60" width="30" height="320" fill="#f5e6cc" stroke="#2c5aa0" stroke-width="2"/>
  <text x="445" y="220" font-family="Arial" font-size="14" text-anchor="middle" transform="rotate(-90, 445, 220)">ReLU</text>
  
  <!-- Dropout -->
  <rect x="490" y="60" width="30" height="320" fill="#f5e6cc" stroke="#2c5aa0" stroke-width="2"/>
  <text x="505" y="220" font-family="Arial" font-size="13" text-anchor="middle" transform="rotate(-90, 505, 220)">Dropout (0.2)</text>
  
  <!-- Second HeteroConv Layer -->
  <rect x="550" y="60" width="100" height="320" fill="#ffcccb" stroke="#2c5aa0" stroke-width="2"/>
  <text x="600" y="220" font-family="Arial" font-size="14" text-anchor="middle" transform="rotate(-90, 600, 220)">HeteroConv #2 (SAGEConv)</text>
  
  <!-- ReLU -->
  <rect x="680" y="60" width="30" height="320" fill="#f5e6cc" stroke="#2c5aa0" stroke-width="2"/>
  <text x="695" y="220" font-family="Arial" font-size="14" text-anchor="middle" transform="rotate(-90, 695, 220)">ReLU</text>
  
  <!-- Prediction Layers -->
  <rect x="740" y="60" width="30" height="320" fill="#f5e6cc" stroke="#2c5aa0" stroke-width="2"/>
  <text x="755" y="220" font-family="Arial" font-size="13" text-anchor="middle" transform="rotate(-90, 755, 220)">Dropout (0.2)</text>
  
  <rect x="800" y="60" width="60" height="320" fill="#c9c9ff" stroke="#2c5aa0" stroke-width="2"/>
  <text x="830" y="220" font-family="Arial" font-size="14" text-anchor="middle" transform="rotate(-90, 830, 220)">Linear + ReLU</text>
  
  <rect x="890" y="60" width="60" height="320" fill="#c9c9ff" stroke="#2c5aa0" stroke-width="2"/>
  <text x="920" y="220" font-family="Arial" font-size="14" text-anchor="middle" transform="rotate(-90, 920, 220)">Linear + Clamp</text>
  
  <!-- Size annotations -->
  <text x="90" y="400" font-family="Arial" font-size="12" text-anchor="middle">Input</text>
  <text x="180" y="400" font-family="Arial" font-size="12" text-anchor="middle">Feature Map: 64d</text>
  <text x="350" y="400" font-family="Arial" font-size="12" text-anchor="middle">Message Passing: 64d</text>
  <text x="600" y="400" font-family="Arial" font-size="12" text-anchor="middle">Message Passing: 64d</text>
  <text x="830" y="400" font-family="Arial" font-size="12" text-anchor="middle">Dense: 64d</text>
  <text x="920" y="400" font-family="Arial" font-size="12" text-anchor="middle">Dense: 1d</text>
  
  <!-- Layer type annotations -->
  <text x="90" y="420" font-family="Arial" font-size="12" text-anchor="middle">Raw Data</text>
  <text x="180" y="420" font-family="Arial" font-size="12" text-anchor="middle">Embeddings</text>
  <text x="350" y="420" font-family="Arial" font-size="12" text-anchor="middle">Graph Convolution</text>
  <text x="600" y="420" font-family="Arial" font-size="12" text-anchor="middle">Graph Convolution</text>
  <text x="830" y="420" font-family="Arial" font-size="12" text-anchor="middle">MLP</text>
  <text x="920" y="420" font-family="Arial" font-size="12" text-anchor="middle">Output</text>
  
  <!-- Connecting arrows -->
  <line x1="120" y1="220" x2="150" y2="140" stroke="#000" stroke-width="2" marker-end="url(#arrowhead)"/>
  <line x1="120" y1="220" x2="150" y2="300" stroke="#000" stroke-width="2" marker-end="url(#arrowhead)"/>
  <line x1="210" y1="140" x2="240" y2="200" stroke="#000" stroke-width="2" marker-end="url(#arrowhead)"/>
  <line x1="210" y1="300" x2="240" y2="240" stroke="#000" stroke-width="2" marker-end="url(#arrowhead)"/>
  <line x1="270" y1="220" x2="300" y2="220" stroke="#000" stroke-width="2" marker-end="url(#arrowhead)"/>
  <line x1="400" y1="220" x2="430" y2="220" stroke="#000" stroke-width="2" marker-end="url(#arrowhead)"/>
  <line x1="460" y1="220" x2="490" y2="220" stroke="#000" stroke-width="2" marker-end="url(#arrowhead)"/>
  <line x1="520" y1="220" x2="550" y2="220" stroke="#000" stroke-width="2" marker-end="url(#arrowhead)"/>
  <line x1="650" y1="220" x2="680" y2="220" stroke="#000" stroke-width="2" marker-end="url(#arrowhead)"/>
  <line x1="710" y1="220" x2="740" y2="220" stroke="#000" stroke-width="2" marker-end="url(#arrowhead)"/>
  <line x1="770" y1="220" x2="800" y2="220" stroke="#000" stroke-width="2" marker-end="url(#arrowhead)"/>
  <line x1="860" y1="220" x2="890" y2="220" stroke="#000" stroke-width="2" marker-end="url(#arrowhead)"/>
  
  <!-- Information flow annotation -->
  <text x="480" y="470" font-family="Arial" font-size="18" text-anchor="middle" font-style="italic">Information Flow</text>
  <line x1="100" y1="450" x2="860" y2="450" stroke="#000" stroke-width="2" marker-end="url(#arrowhead)"/>
  
  <!-- Define arrowhead marker -->
  <defs>
    <marker id="arrowhead" markerWidth="10" markerHeight="7" refX="9" refY="3.5" orient="auto">
      <polygon points="0 0, 10 3.5, 0 7" fill="#000"/>
    </marker>
  </defs>
</svg>